<?xml version="1.0" encoding="UTF-8"?>
<svg xmlns="http://www.w3.org/2000/svg" xmlns:xlink="http://www.w3.org/1999/xlink" width="512" height="512" viewBox="0 0 56 56" version="1.1"><!-- Generator: Sketch 51.3 (57544) - http://www.bohemiancoding.com/sketch --><title>001 - Accessibility</title><desc>Created with Sketch.</desc><defs/><g id="Page-1" stroke="none" stroke-width="1" fill="none" fill-rule="evenodd"><g id="001---Accessibility" fill="#000000" fill-rule="nonzero"><circle id="Oval" cx="28" cy="13" r="4"/><path d="M28,56 C43.463973,56 56,43.463973 56,28 C56,12.536027 43.463973,-6.21724894e-15 28,-7.10542736e-15 C12.536027,-7.99360578e-15 1.77635684e-15,12.536027 0,28 C0.0176345439,43.4566626 12.5433374,55.9823655 28,56 Z M28,2 C42.3594035,2 54,13.6405965 54,28 C54,42.3594035 42.3594035,54 28,54 C13.6405965,54 2,42.3594035 2,28 C2.01653204,13.6474499 13.6474499,2.01653204 28,2 Z" id="Shape"/><path d="M13.77,24 L22.27,24.771 C23.8178588,24.9037057 25.0051579,26.2014715 25,27.755 L25,30.055 C25.0004871,30.8052389 24.859701,31.548861 24.585,32.247 L19.756,44.547 C19.5794493,44.8712879 19.5959602,45.2664745 19.7989457,45.5749054 C20.0019313,45.8833363 20.3583573,46.0548168 20.7260323,46.020937 C21.0937074,45.9870573 21.4127952,45.7533309 21.556,45.413 L26.162,34.229 C26.4683487,33.4867868 27.1920492,33.0025712 27.995,33.0025712 C28.7979508,33.0025712 29.5216513,33.4867868 29.828,34.229 L34.447,45.441 C34.556499,45.6720043 34.7516014,45.8513264 34.991,45.941 C35.3698592,46.0847444 35.7980142,45.9856487 36.0751917,45.6900656 C36.3523693,45.3944826 36.4237718,44.9608487 36.256,44.592 L31.415,32.247 C31.1403827,31.5484884 30.9996019,30.8045551 31,30.054 L31,27.754 C30.9932331,26.1996736 32.1803843,24.9002889 33.729,24.767 L42.216,24 C42.4831092,23.98313 42.7323088,23.8598907 42.9078456,23.6578542 C43.0833824,23.4558177 43.1706053,23.1918471 43.15,22.925 C43.1323755,22.659828 43.0092988,22.4127561 42.8082523,22.2389541 C42.6072057,22.0651522 42.3449336,21.9790955 42.08,22 L31.587,22.942 C31.171,22.9806667 30.754,23 30.336,23 L25.664,23 C25.246,23 24.829,22.9813333 24.413,22.944 L13.911,22 C13.3587153,21.9610639 12.8794361,22.3772153 12.8405,22.9295 C12.8015639,23.4817847 13.2177153,23.9610639 13.77,24 Z" id="Shape"/><path d="M28,52 C41.254834,52 52,41.254834 52,28 C52,14.745166 41.254834,4 28,4 C14.745166,4 4,14.745166 4,28 C4.01542952,41.2484376 14.7515624,51.9845705 28,52 Z M28,7 C31.3137085,7 34,9.6862915 34,13 C34,16.3137085 31.3137085,19 28,19 C24.6862915,19 22,16.3137085 22,13 C22.0033074,9.68766243 24.6876624,7.00330738 28,7 Z M14.073,20.008 L24.591,20.952 C24.9476667,20.984 25.3053333,21 25.664,21 L30.336,21 C30.694,21 31.0516667,20.984 31.409,20.952 L41.909,20.009 L41.925,20.009 C43.5771598,19.8830791 45.018579,21.1203402 45.1445,22.7725 C45.2704209,24.4246598 44.0331598,25.8660791 42.381,25.992 L33.908,26.761 C33.3930498,26.8075341 32.998487,27.2389517 32.998,27.756 L32.998,30.056 C32.9977596,30.5563054 33.0913788,31.0522156 33.274,31.518 L38.103,43.818 C38.7265204,45.324794 38.032235,47.0537051 36.5397645,47.7107727 C35.0472941,48.3678403 33.3032861,47.7124001 32.613,46.235 L27.983,34.988 L23.4,46.2 C22.9775349,47.1978975 22.0497522,47.8904043 20.9729111,48.0116048 C19.89607,48.1328052 18.8375637,47.6638589 18.2038478,46.7848365 C17.5701319,45.9058141 17.4597165,44.7533581 17.915,43.77 L22.727,31.514 C22.9085788,31.0487099 23.001183,30.553464 23,30.054 L23,27.754 C22.999513,27.2369517 22.6049502,26.8055341 22.09,26.759 L13.6,25.99 C11.9481163,25.8602131 10.7142131,24.4158837 10.8440001,22.764 C10.973787,21.1121163 12.4181163,19.8782131 14.07,20.008 L14.073,20.008 Z" id="Shape"/></g></g></svg>
