<svg width="544" height="836" viewBox="0 0 544 836" fill="none" xmlns="http://www.w3.org/2000/svg">
<path fill-rule="evenodd" clip-rule="evenodd" d="M266.5 326.161C300.674 270.123 300.763 194.741 365.734 183.312C431.788 171.692 444.826 297.014 506.67 324.692C562.404 349.636 640.51 284.031 684.911 326.161C726.635 365.752 689.446 436.939 684.715 493.634C680.77 540.899 689.781 594.443 659.513 630.493C629.941 665.715 576.492 664.48 531.712 675.865C497.373 684.595 464.781 692.945 429.5 697C384.2 702.207 365.734 697 326.5 675.865C285.82 653.951 266.5 630.493 242 581C200.317 496.797 7.0007 470.501 44.0008 346C70.0047 258.501 243.296 364.212 266.5 326.161Z" stroke="#666BC2" stroke-width="5"/>
<path fill-rule="evenodd" clip-rule="evenodd" d="M299.908 318.985C334.081 262.947 334.17 187.565 399.142 176.135C465.195 164.516 478.234 289.838 540.077 317.516C595.811 342.46 673.917 276.854 718.318 318.985C760.042 358.576 722.853 429.763 718.122 486.458C714.178 533.723 723.188 587.267 692.92 623.317C663.348 658.538 609.899 657.304 565.119 668.689C530.78 677.419 498.188 685.769 462.907 689.824C417.607 695.03 399.142 689.824 359.907 668.689C319.227 646.775 299.908 623.317 275.407 573.824C233.724 489.621 40.4079 463.324 77.408 338.824C103.412 251.325 276.704 357.036 299.908 318.985Z" stroke="#8CA8D1" stroke-width="5"/>
</svg>
