<svg width="551" height="737" viewBox="0 0 551 737" fill="none" xmlns="http://www.w3.org/2000/svg">
<path fill-rule="evenodd" clip-rule="evenodd" d="M401.074 697.473C337.937 694.428 276.092 701.026 215.971 681.505C140.936 657.142 45.6425 642.527 12.0309 571.156C-21.5325 499.889 48.651 422.362 57.0407 344.035C65.881 261.501 -4.59648 149.017 62.4839 100.123C136.699 46.0286 238.594 165.147 328.458 146.203C406.476 129.757 436.046 13.8702 515.247 4.67954C598.098 -4.93463 698.809 26.7902 741.845 98.2328C785.731 171.086 718.851 262.398 721.697 347.4C724.107 419.388 781.02 488.147 757.175 556.113C733.016 624.978 665.853 673.004 598.019 699.932C535.737 724.656 468.007 700.701 401.074 697.473Z" stroke="#666BC2" stroke-width="5"/>
<path fill-rule="evenodd" clip-rule="evenodd" d="M421.074 720.473C357.937 717.428 296.092 724.026 235.971 704.505C160.936 680.142 65.6424 665.527 32.0309 594.156C-1.53249 522.889 68.651 445.362 77.0407 367.035C85.881 284.501 15.4035 172.017 82.4839 123.123C156.699 69.0287 258.594 188.147 348.458 169.203C426.476 152.757 456.046 36.8702 535.247 27.6796C618.098 18.0654 718.809 49.7902 761.845 121.233C805.731 194.086 738.851 285.398 741.697 370.4C744.107 442.388 801.02 511.147 777.175 579.113C753.016 647.978 685.853 696.004 618.019 722.932C555.737 747.656 488.007 723.701 421.074 720.473Z" stroke="#8CA8D1" stroke-width="5"/>
</svg>
