<svg width="431" height="649" viewBox="0 0 431 649" fill="none" xmlns="http://www.w3.org/2000/svg">
<path fill-rule="evenodd" clip-rule="evenodd" d="M73.6536 33.6439C132.484 20.7278 207.741 -20.8832 250.288 21.7502C296.565 68.1224 226.311 154.862 253.917 214.275C281.852 274.399 382.099 279.592 399.776 343.488C417.352 407.017 395.679 491.627 340.712 528.006C283.177 566.084 204.926 498.864 138.245 516.577C74.5396 533.5 39.8514 645.508 -22.6344 624.525C-86.2816 603.152 -46.5089 489.548 -91.2689 439.505C-137.308 388.032 -244.957 409.965 -271.548 346.231C-296.295 286.917 -244.72 219.43 -203.748 169.913C-167.914 126.606 -109.751 114.503 -59.2995 89.7196C-15.2363 68.0743 25.7031 44.1713 73.6536 33.6439Z" stroke="#8CA8D1" stroke-width="5"/>
<path fill-rule="evenodd" clip-rule="evenodd" d="M95.6536 52.6439C154.484 39.7278 229.741 -1.88319 272.288 40.7502C318.565 87.1224 248.311 173.862 275.917 233.275C303.852 293.399 404.099 298.592 421.776 362.488C439.352 426.017 417.679 510.627 362.712 547.006C305.177 585.084 226.926 517.864 160.245 535.577C96.5396 552.5 61.8514 664.508 -0.634384 643.525C-64.2816 622.152 -24.5089 508.548 -69.2689 458.505C-115.308 407.032 -222.957 428.965 -249.548 365.231C-274.295 305.917 -222.72 238.43 -181.748 188.913C-145.914 145.606 -87.7514 133.503 -37.2995 108.72C6.76367 87.0743 47.7031 63.1713 95.6536 52.6439Z" stroke="#D9E2F0" stroke-width="5"/>
</svg>
