<svg width="374" height="510" viewBox="0 0 374 510" fill="none" xmlns="http://www.w3.org/2000/svg">
<path fill-rule="evenodd" clip-rule="evenodd" d="M63.2986 49.5679C118.708 44.7764 181.021 -22.5605 222.642 13.6531C267.473 52.66 195.952 132.883 220.631 186.461C245.136 239.663 361.822 240.108 353.584 297.93C345.364 355.633 245.116 337.961 194.669 368.683C163.981 387.372 149.63 423.337 118.407 441.154C80.3572 462.867 35.7663 500.483 -4.05649 482.085C-45.805 462.797 -35.9869 399.802 -57.6466 359.817C-73.079 331.328 -108.054 313.745 -112.559 281.785C-117.059 249.863 -85.7095 224.109 -81.2776 192.177C-74.1442 140.781 -116.244 76.5061 -78.9645 39.7342C-44.7428 5.97811 14.9646 53.7475 63.2986 49.5679Z" stroke="#666BC2" stroke-width="5"/>
<path fill-rule="evenodd" clip-rule="evenodd" d="M80.2986 69.5679C135.708 64.7764 198.021 -2.56051 239.642 33.6531C284.473 72.66 212.952 152.883 237.631 206.461C262.136 259.663 378.822 260.108 370.584 317.93C362.364 375.633 262.116 357.961 211.669 388.683C180.981 407.372 166.63 443.337 135.407 461.154C97.3572 482.867 52.7663 520.483 12.9435 502.085C-28.805 482.797 -18.9869 419.802 -40.6466 379.817C-56.079 351.328 -91.0543 333.745 -95.5594 301.785C-100.059 269.863 -68.7095 244.109 -64.2776 212.177C-57.1442 160.781 -99.2436 96.5061 -61.9645 59.7342C-27.7428 25.9781 31.9646 73.7475 80.2986 69.5679Z" stroke="#8CA8D1" stroke-width="5"/>
</svg>
