<svg width="54" height="54" viewBox="0 0 54 54" fill="none" xmlns="http://www.w3.org/2000/svg">
<path fill-rule="evenodd" clip-rule="evenodd" d="M16.7963 2.3985C19.4355 2.277 20.277 2.25 27 2.25C33.723 2.25 34.5645 2.27925 37.2015 2.3985C39.8385 2.51775 41.6385 2.9385 43.2135 3.54825C44.8627 4.1715 46.359 5.14575 47.5965 6.40575C48.8565 7.641 49.8285 9.135 50.4495 10.7865C51.0615 12.3615 51.48 14.1615 51.6015 16.794C51.723 19.4377 51.75 20.2792 51.75 27C51.75 33.723 51.7207 34.5645 51.6015 37.2038C51.4823 39.8363 51.0615 41.6362 50.4495 43.2113C49.8285 44.863 48.8549 46.3594 47.5965 47.5965C46.359 48.8565 44.8627 49.8285 43.2135 50.4495C41.6385 51.0615 39.8385 51.48 37.206 51.6015C34.5645 51.723 33.723 51.75 27 51.75C20.277 51.75 19.4355 51.7207 16.7963 51.6015C14.1638 51.4823 12.3638 51.0615 10.7887 50.4495C9.13707 49.8284 7.6406 48.8548 6.4035 47.5965C5.14435 46.3605 4.16996 44.8647 3.54825 43.2135C2.9385 41.6385 2.52 39.8385 2.3985 37.206C2.277 34.5622 2.25 33.7208 2.25 27C2.25 20.277 2.27925 19.4355 2.3985 16.7985C2.51775 14.1615 2.9385 12.3615 3.54825 10.7865C4.17088 9.13518 5.14602 7.63945 6.40575 6.4035C7.64109 5.14463 9.13606 4.17025 10.7865 3.54825C12.3615 2.9385 14.1615 2.52 16.794 2.3985H16.7963ZM37.0013 6.8535C34.3913 6.73425 33.6082 6.7095 27 6.7095C20.3918 6.7095 19.6087 6.73425 16.9987 6.8535C14.5845 6.96375 13.275 7.3665 12.402 7.70625C11.2478 8.15625 10.422 8.6895 9.55575 9.55575C8.7346 10.3546 8.10266 11.3271 7.70625 12.402C7.3665 13.275 6.96375 14.5845 6.8535 16.9987C6.73425 19.6087 6.7095 20.3918 6.7095 27C6.7095 33.6082 6.73425 34.3913 6.8535 37.0013C6.96375 39.4155 7.3665 40.725 7.70625 41.598C8.10225 42.6713 8.7345 43.6455 9.55575 44.4443C10.3545 45.2655 11.3288 45.8978 12.402 46.2938C13.275 46.6335 14.5845 47.0363 16.9987 47.1465C19.6087 47.2658 20.3895 47.2905 27 47.2905C33.6105 47.2905 34.3913 47.2658 37.0013 47.1465C39.4155 47.0363 40.725 46.6335 41.598 46.2938C42.7523 45.8438 43.578 45.3105 44.4443 44.4443C45.2655 43.6455 45.8978 42.6713 46.2938 41.598C46.6335 40.725 47.0363 39.4155 47.1465 37.0013C47.2658 34.3913 47.2905 33.6082 47.2905 27C47.2905 20.3918 47.2658 19.6087 47.1465 16.9987C47.0363 14.5845 46.6335 13.275 46.2938 12.402C45.8438 11.2478 45.3105 10.422 44.4443 9.55575C43.6453 8.73466 42.6728 8.10272 41.598 7.70625C40.725 7.3665 39.4155 6.96375 37.0013 6.8535ZM23.8388 34.6297C25.6042 35.3647 27.5701 35.4639 29.4006 34.9104C31.2311 34.3569 32.8126 33.1851 33.8751 31.595C34.9376 30.005 35.4151 28.0955 35.2261 26.1925C35.0371 24.2895 34.1933 22.5112 32.8388 21.1612C31.9753 20.2983 30.9312 19.6376 29.7817 19.2266C28.6323 18.8156 27.406 18.6646 26.1911 18.7844C24.9763 18.9042 23.8031 19.2919 22.7561 19.9195C21.709 20.5472 20.8142 21.3992 20.1359 22.4142C19.4577 23.4292 19.0129 24.5819 18.8337 25.7894C18.6544 26.9969 18.7451 28.2292 19.0992 29.3974C19.4533 30.5657 20.0621 31.6409 20.8816 32.5456C21.7012 33.4504 22.7111 34.1622 23.8388 34.6297ZM18.0045 18.0045C19.1858 16.8232 20.5882 15.8861 22.1317 15.2468C23.6751 14.6075 25.3294 14.2784 27 14.2784C28.6706 14.2784 30.3249 14.6075 31.8683 15.2468C33.4118 15.8861 34.8142 16.8232 35.9955 18.0045C37.1768 19.1858 38.1139 20.5882 38.7532 22.1317C39.3925 23.6751 39.7216 25.3294 39.7216 27C39.7216 28.6706 39.3925 30.3249 38.7532 31.8683C38.1139 33.4118 37.1768 34.8142 35.9955 35.9955C33.6097 38.3813 30.374 39.7216 27 39.7216C23.626 39.7216 20.3903 38.3813 18.0045 35.9955C15.6187 33.6097 14.2784 30.374 14.2784 27C14.2784 23.626 15.6187 20.3903 18.0045 18.0045ZM42.543 16.173C42.8357 15.8969 43.0701 15.5648 43.2322 15.1964C43.3943 14.8281 43.4808 14.431 43.4867 14.0286C43.4926 13.6262 43.4176 13.2267 43.2663 12.8538C43.115 12.4809 42.8905 12.1421 42.6059 11.8576C42.3214 11.573 41.9826 11.3485 41.6097 11.1972C41.2368 11.0459 40.8373 10.9709 40.4349 10.9768C40.0325 10.9827 39.6354 11.0692 39.2671 11.2313C38.8987 11.3934 38.5666 11.6278 38.2905 11.9205C37.7534 12.4898 37.4594 13.246 37.4708 14.0286C37.4822 14.8112 37.7982 15.5585 38.3516 16.1119C38.905 16.6653 39.6523 16.9813 40.4349 16.9927C41.2175 17.0041 41.9737 16.7101 42.543 16.173Z" fill="black"/>
</svg>
