<svg width="260" height="260" viewBox="0 0 260 260" fill="none" xmlns="http://www.w3.org/2000/svg">
<circle cx="130" cy="130" r="125" stroke="#666BC2" stroke-width="10" stroke-linecap="round" stroke-linejoin="round" stroke-dasharray="2 5"/>
<path d="M186.344 168.469H86.9062V78.2812C86.9062 77.6453 86.3859 77.125 85.75 77.125H77.6562C77.0203 77.125 76.5 77.6453 76.5 78.2812V177.719C76.5 178.355 77.0203 178.875 77.6562 178.875H186.344C186.98 178.875 187.5 178.355 187.5 177.719V169.625C187.5 168.989 186.98 168.469 186.344 168.469ZM102.198 146.168C102.646 146.616 103.368 146.616 103.831 146.168L123.82 126.28L142.262 144.838C142.71 145.286 143.447 145.286 143.895 144.838L183.699 105.048C184.147 104.6 184.147 103.863 183.699 103.415L177.975 97.6918C177.758 97.4766 177.465 97.3559 177.159 97.3559C176.853 97.3559 176.56 97.4766 176.342 97.6918L143.1 130.92L124.687 112.391C124.469 112.175 124.176 112.055 123.87 112.055C123.564 112.055 123.271 112.175 123.054 112.391L96.4887 138.796C96.2735 139.014 96.1528 139.307 96.1528 139.613C96.1528 139.919 96.2735 140.212 96.4887 140.43L102.198 146.168Z" fill="#666BC2"/>
</svg>
