<svg width="260" height="260" viewBox="0 0 260 260" fill="none" xmlns="http://www.w3.org/2000/svg">
<circle cx="130" cy="130" r="125" stroke="#666BC2" stroke-width="10" stroke-linecap="round" stroke-linejoin="round" stroke-dasharray="2 5"/>
<path d="M140.219 68.25C143.711 68.2496 147.073 69.5748 149.625 71.9579C152.178 74.341 153.73 77.6042 153.969 81.088L154 82.0313C154 81.5106 153.969 81.0023 153.914 80.5H164.719C166.529 80.5 168.321 80.8565 169.993 81.549C171.665 82.2416 173.184 83.2567 174.464 84.5364C175.743 85.8161 176.758 87.3354 177.451 89.0074C178.144 90.6794 178.5 92.4715 178.5 94.2813V176.969C178.5 178.779 178.144 180.571 177.451 182.243C176.758 183.915 175.743 185.434 174.464 186.714C173.184 187.993 171.665 189.008 169.993 189.701C168.321 190.394 166.529 190.75 164.719 190.75H94.2812C90.6262 190.75 87.1209 189.298 84.5364 186.714C81.9519 184.129 80.5 180.624 80.5 176.969V94.2813C80.5 90.6262 81.9519 87.1209 84.5364 84.5364C87.1209 81.952 90.6262 80.5 94.2812 80.5H105.086C105.043 80.8553 105.024 81.2166 105.006 81.578L105 82.0313C105 78.3762 106.452 74.8709 109.036 72.2864C111.621 69.7019 115.126 68.25 118.781 68.25H140.219ZM140.219 95.8125H118.781C116.474 95.8131 114.204 95.2341 112.179 94.1286C110.154 93.023 108.44 91.4264 107.193 89.4854L107.321 89.6875H94.2812C93.0629 89.6875 91.8945 90.1715 91.033 91.033C90.1715 91.8945 89.6875 93.0629 89.6875 94.2813V176.969C89.6875 179.505 91.7455 181.563 94.2812 181.563H164.719C165.937 181.563 167.106 181.079 167.967 180.217C168.828 179.356 169.312 178.187 169.312 176.969V94.2813C169.312 93.0629 168.828 91.8945 167.967 91.033C167.106 90.1715 165.937 89.6875 164.719 89.6875H151.679L151.807 89.4854C150.56 91.4264 148.846 93.023 146.821 94.1286C144.796 95.2341 142.526 95.8131 140.219 95.8125ZM140.219 77.4375H118.781C117.563 77.4375 116.394 77.9215 115.533 78.783C114.671 79.6445 114.187 80.8129 114.187 82.0313C114.187 83.2496 114.671 84.418 115.533 85.2795C116.394 86.141 117.563 86.625 118.781 86.625H140.219C141.437 86.625 142.606 86.141 143.467 85.2795C144.328 84.418 144.812 83.2496 144.812 82.0313C144.812 80.8129 144.328 79.6445 143.467 78.783C142.606 77.9215 141.437 77.4375 140.219 77.4375ZM105 144.813H129.5C130.718 144.813 131.887 144.329 132.748 143.467C133.61 142.606 134.094 141.437 134.094 140.219C134.094 139 133.61 137.832 132.748 136.97C131.887 136.109 130.718 135.625 129.5 135.625H105C103.782 135.625 102.613 136.109 101.752 136.97C100.89 137.832 100.406 139 100.406 140.219C100.406 141.437 100.89 142.606 101.752 143.467C102.613 144.329 103.782 144.813 105 144.813ZM105 120.313H154C155.218 120.313 156.387 119.829 157.248 118.967C158.11 118.106 158.594 116.937 158.594 115.719C158.594 114.5 158.11 113.332 157.248 112.47C156.387 111.609 155.218 111.125 154 111.125H105C103.782 111.125 102.613 111.609 101.752 112.47C100.89 113.332 100.406 114.5 100.406 115.719C100.406 116.937 100.89 118.106 101.752 118.967C102.613 119.829 103.782 120.313 105 120.313ZM105 169.313H141.75C142.968 169.313 144.137 168.829 144.998 167.967C145.86 167.106 146.344 165.937 146.344 164.719C146.344 163.5 145.86 162.332 144.998 161.47C144.137 160.609 142.968 160.125 141.75 160.125H105C103.782 160.125 102.613 160.609 101.752 161.47C100.89 162.332 100.406 163.5 100.406 164.719C100.406 165.937 100.89 167.106 101.752 167.967C102.613 168.829 103.782 169.313 105 169.313Z" fill="#666BC2"/>
</svg>
