<svg width="260" height="260" viewBox="0 0 260 260" fill="none" xmlns="http://www.w3.org/2000/svg">
<path d="M80.9811 111.007C81.1052 109.461 81.8067 108.019 82.9461 106.968C84.0854 105.917 85.579 105.333 87.1293 105.333H172.871C174.421 105.333 175.915 105.917 177.054 106.968C178.193 108.019 178.895 109.461 179.019 111.007L184.427 178.347C184.563 180.044 184.347 181.751 183.791 183.36C183.235 184.969 182.352 186.446 181.198 187.697C180.043 188.948 178.642 189.947 177.083 190.63C175.523 191.313 173.839 191.666 172.137 191.667H87.8631C86.1607 191.666 84.4767 191.313 82.9173 190.63C81.358 189.947 79.9569 188.948 78.8024 187.697C77.6479 186.446 76.765 184.969 76.2092 183.36C75.6534 181.751 75.4368 180.044 75.573 178.347L80.975 111.007H80.9811Z" stroke="#666BC2" stroke-width="12.3333" stroke-linecap="round" stroke-linejoin="round"/>
<path d="M154.667 123.833V93C154.667 86.458 152.068 80.184 147.442 75.5581C142.816 70.9322 136.542 68.3334 130 68.3334C123.458 68.3334 117.184 70.9322 112.558 75.5581C107.932 80.184 105.333 86.458 105.333 93V123.833" stroke="#666BC2" stroke-width="12.3333" stroke-linecap="round" stroke-linejoin="round"/>
<circle cx="130" cy="130" r="125" stroke="#666BC2" stroke-width="10" stroke-linecap="round" stroke-linejoin="round" stroke-dasharray="2 5"/>
</svg>
