<svg width="248" height="631" viewBox="0 0 248 631" fill="none" xmlns="http://www.w3.org/2000/svg">
    <path fill-rule="evenodd" clip-rule="evenodd" d="M-48.6244 57.6406C-11.1119 63.9082 26.2101 39.795 63.833 45.3609C103.664 51.2534 153.461 56.4671 174.694 90.6779C198.391 128.857 160.863 181.655 174.918 224.336C186.512 259.543 239.995 271.796 246.362 308.312C252.57 343.926 208.394 372.256 207.005 408.38C205.117 457.456 274.059 519.107 237.012 551.349C194.266 588.552 125.492 515.274 70.1542 527.481C36.55 534.894 31.3173 586.294 1.41238 603.32C-29.777 621.078 -69.2776 638.558 -102.903 626.01C-138.533 612.712 -144.372 561.927 -173.86 537.91C-199.18 517.287 -241.115 521.9 -261.775 496.611C-282.316 471.468 -267.504 430.483 -284.313 402.706C-307.81 363.878 -383.918 350.107 -377.633 305.16C-371.148 258.791 -295.257 261.331 -260.203 230.293C-238.097 210.721 -221.229 185.26 -210.954 157.579C-192.68 108.344 -221.369 32.7146 -176.647 5.18165C-137.038 -19.2039 -94.5024 49.9754 -48.6244 57.6406Z" fill="#666BC2" />
</svg>
