<svg width="178" height="70" viewBox="0 0 178 70" fill="none" xmlns="http://www.w3.org/2000/svg">
<g clip-path="url(#clip0)">
<path d="M176.701 8.99442H1.29932V61.3966H176.701V8.99442Z" stroke="#666BC2" stroke-width="5"/>
<path d="M66.5413 38.1821C66.5413 34.1299 67.7132 30.8262 70.0571 28.271C72.401 25.69 75.7024 24.3608 79.9614 24.2833C84.5349 24.2833 87.922 25.6126 90.123 28.271C92.324 30.9294 93.4245 34.1428 93.4245 37.9111C93.4245 41.989 92.2382 45.3185 89.8658 47.8995C87.5219 50.4806 84.2204 51.7711 79.9614 51.7711C75.4166 51.7711 72.0437 50.4547 69.8427 47.8221C67.6417 45.1637 66.5413 41.9503 66.5413 38.1821ZM72.3295 38.1433C72.3295 40.905 72.9441 43.1634 74.1732 44.9185C75.4023 46.6736 77.3174 47.5511 79.9185 47.5511C82.2624 47.5511 84.1347 46.7639 85.5353 45.1895C86.9359 43.6151 87.6362 41.1889 87.6362 37.9111C87.6362 35.1752 87.0217 32.9297 85.7925 31.1746C84.5634 29.4195 82.6483 28.542 80.0472 28.542C77.7605 28.542 75.9025 29.4066 74.4733 31.1359C73.0441 32.8652 72.3295 35.201 72.3295 38.1433ZM110.755 37.5239C109.755 37.1109 108.826 36.8012 107.968 36.5947C107.111 36.3624 106.196 36.2463 105.224 36.2463C104.51 36.2463 103.952 36.3754 103.552 36.6335C103.181 36.8657 102.995 37.2013 102.995 37.64C102.995 37.9498 103.224 38.2466 103.681 38.5305C104.167 38.8144 104.939 39.1241 105.996 39.4597C107.74 40.0275 109.355 40.8276 110.841 41.86C112.328 42.8666 113.071 44.1829 113.071 45.8089C113.071 47.6673 112.328 49.1126 110.841 50.145C109.383 51.1774 107.24 51.6936 104.41 51.6936C103.524 51.6936 102.337 51.5388 100.851 51.229C99.3933 50.9193 98.1785 50.4289 97.2066 49.7579L98.8788 46.1187C99.8792 46.5316 100.837 46.8542 101.751 47.0865C102.695 47.293 103.552 47.3962 104.324 47.3962C105.353 47.3962 106.139 47.2672 106.682 47.0091C107.225 46.751 107.497 46.4155 107.497 46.0025C107.497 45.4863 107.225 45.0217 106.682 44.6088C106.139 44.1958 105.282 43.8216 104.11 43.486C102.452 42.9956 100.88 42.2988 99.3933 41.3954C97.9355 40.4662 97.2066 39.2274 97.2066 37.6788C97.2066 35.8979 97.9355 34.5041 99.3933 33.4975C100.851 32.4651 102.823 31.9489 105.31 31.9489C106.196 31.9489 107.34 32.1167 108.74 32.4522C110.141 32.7878 111.37 33.2781 112.428 33.9234L110.755 37.5239ZM119.83 24.1285C120.716 24.1285 121.459 24.3995 122.059 24.9415C122.688 25.4835 123.002 26.1546 123.002 26.9547C123.002 27.7548 122.688 28.4259 122.059 28.9679C121.459 29.5099 120.716 29.7809 119.83 29.7809C118.972 29.7809 118.243 29.5099 117.643 28.9679C117.043 28.4259 116.742 27.7548 116.742 26.9547C116.742 26.1546 117.043 25.4835 117.643 24.9415C118.243 24.3995 118.972 24.1285 119.83 24.1285ZM122.616 32.4522V51.229H117.043V32.4522H122.616ZM139.418 32.4522L140.533 36.4786C139.589 36.4786 138.489 36.7238 137.231 37.2142C136.002 37.7046 134.787 38.4273 133.587 39.3822V51.229H128.013V32.4522H130.928L132.772 35.201C133.63 34.5299 134.673 33.9105 135.902 33.3427C137.131 32.749 138.303 32.4522 139.418 32.4522ZM146.167 24.1285C147.053 24.1285 147.796 24.3995 148.396 24.9415C149.025 25.4835 149.339 26.1546 149.339 26.9547C149.339 27.7548 149.025 28.4259 148.396 28.9679C147.796 29.5099 147.053 29.7809 146.167 29.7809C145.309 29.7809 144.58 29.5099 143.98 28.9679C143.38 28.4259 143.08 27.7548 143.08 26.9547C143.08 26.1546 143.38 25.4835 143.98 24.9415C144.58 24.3995 145.309 24.1285 146.167 24.1285ZM148.954 32.4522V51.229H143.38V32.4522H148.954ZM166.569 37.5239C165.569 37.1109 164.64 36.8012 163.783 36.5947C162.925 36.3624 162.01 36.2463 161.038 36.2463C160.324 36.2463 159.766 36.3754 159.366 36.6335C158.995 36.8657 158.809 37.2013 158.809 37.64C158.809 37.9498 159.038 38.2466 159.495 38.5305C159.981 38.8144 160.753 39.1241 161.81 39.4597C163.554 40.0275 165.169 40.8276 166.655 41.86C168.142 42.8666 168.885 44.1829 168.885 45.8089C168.885 47.6673 168.142 49.1126 166.655 50.145C165.197 51.1774 163.054 51.6936 160.224 51.6936C159.338 51.6936 158.151 51.5388 156.665 51.229C155.207 50.9193 153.993 50.4289 153.021 49.7579L154.693 46.1187C155.693 46.5316 156.651 46.8542 157.566 47.0865C158.509 47.293 159.366 47.3962 160.138 47.3962C161.167 47.3962 161.953 47.2672 162.496 47.0091C163.039 46.751 163.311 46.4155 163.311 46.0025C163.311 45.4863 163.039 45.0217 162.496 44.6088C161.953 44.1958 161.096 43.8216 159.924 43.486C158.266 42.9956 156.694 42.2988 155.207 41.3954C153.75 40.4662 153.021 39.2274 153.021 37.6788C153.021 35.8979 153.75 34.5041 155.207 33.4975C156.665 32.4651 158.637 31.9489 161.124 31.9489C162.01 31.9489 163.154 32.1167 164.554 32.4522C165.955 32.7878 167.184 33.2781 168.242 33.9234L166.569 37.5239Z" fill="#666BC2"/>
<path d="M59.3334 8.99442H1.29932V61.3966H59.3334V8.99442Z" fill="#666BC2"/>
<path d="M27.9264 23.482C28.4409 23.481 28.8557 23.6222 29.1708 23.9055C29.4858 24.163 29.6437 24.4466 29.6444 24.7563C29.6451 25.066 29.5598 25.2468 29.3884 25.2988C26.53 25.3043 24.317 26.2763 22.7495 28.2151C21.1818 30.1538 20.4023 32.917 20.4106 36.5046C20.419 40.0662 21.2836 43.0844 23.0044 45.559C24.7252 48.0079 27.1148 49.2292 30.1733 49.2233C33.2318 49.2174 35.6583 47.9093 37.453 45.299C39.2763 42.689 40.1833 39.4092 40.1741 35.4603C40.1647 31.4856 39.0852 28.1969 36.9353 25.5941C34.8139 22.9655 32.0382 21.6545 28.6081 21.6611C25.1781 21.6676 22.2503 22.5637 19.8248 24.3492C17.4279 26.1088 16.1751 28.2147 16.0665 30.6669C15.9527 30.8736 15.6814 30.9773 15.2526 30.9782C14.5093 30.928 14.1367 30.4899 14.1348 29.664C14.1328 28.8381 14.3167 27.9989 14.6863 27.1465C15.0558 26.2682 15.654 25.3895 16.4809 24.5104C17.3078 23.6313 18.2778 22.8422 19.3909 22.1432C20.504 21.4184 21.889 20.835 23.5458 20.3931C25.2027 19.9512 26.9886 19.7284 28.9038 19.7247C33.5057 19.716 37.1823 21.2059 39.9333 24.1947C42.7129 27.1575 44.108 30.9231 44.1189 35.4915C44.1293 40.0599 42.8661 43.7531 40.3287 46.5711C37.8198 49.3637 34.4359 50.7637 30.1769 50.7719C25.9465 50.7801 22.599 49.4571 20.1346 46.8034C17.6988 44.1497 16.4755 40.5644 16.465 36.0476C16.46 33.9311 16.8272 32.0334 17.5665 30.3543C18.3343 28.6752 19.3174 27.357 20.5157 26.3997C22.9408 24.4594 25.411 23.4868 27.9264 23.482Z" fill="#D9E2F0"/>
</g>
<defs>
<clipPath id="clip0">
<rect width="178" height="70" fill="white"/>
</clipPath>
</defs>
</svg>
