<svg width="426" height="768" viewBox="0 0 426 768" fill="none" xmlns="http://www.w3.org/2000/svg">
    <path fill-rule="evenodd" clip-rule="evenodd" d="M229.685 625.441C188.634 577.363 267.385 498.499 249.817 437.416C231.39 373.349 122.967 348.911 130.938 282.108C138.385 219.693 237.228 216.694 281.568 171.315C326.676 125.152 331.54 40.0398 391.117 15.8402C449.838 -8.01162 514.464 28.8231 571.691 53.4703C623.07 75.5986 662.001 114.492 704.37 150.756C750.106 189.902 831.761 214.365 830.853 275.289C829.848 342.717 731.618 367.885 700.233 428.301C677.94 471.217 709.801 531.271 678.612 568.359C647.605 605.232 591.303 603.147 544.57 613.408C500.205 623.149 456.868 625.245 411.667 626.972C349.929 629.332 269.301 671.839 229.685 625.441Z" fill="#666BC2"/>
</svg>
